<mxfile host="app.diagrams.net" modified="2024-05-09T18:08:22.281Z" agent="Mozilla/5.0 (Windows NT 10.0; Win64; x64) AppleWebKit/537.36 (KHTML, like Gecko) Chrome/124.0.0.0 Safari/537.36" etag="o2dLmQu8lLnT60ajxLHT" scale="0.8" border="15" version="24.3.1" type="device">
  <diagram name="Page-1" id="S_Q8nWeu-eqvwCNO-Pz2">
    <mxGraphModel dx="223" dy="522" grid="1" gridSize="10" guides="1" tooltips="1" connect="1" arrows="1" fold="1" page="1" pageScale="1" pageWidth="827" pageHeight="1169" math="0" shadow="0">
      <root>
        <mxCell id="0" />
        <mxCell id="1" parent="0" />
        <mxCell id="DzrJmRy5Vq4GtP9a1xdO-40" style="edgeStyle=orthogonalEdgeStyle;rounded=1;orthogonalLoop=1;jettySize=auto;html=1;entryX=0.5;entryY=0;entryDx=0;entryDy=0;curved=0;labelBackgroundColor=none;fontColor=default;strokeWidth=2;" parent="1" target="DzrJmRy5Vq4GtP9a1xdO-46" edge="1">
          <mxGeometry relative="1" as="geometry">
            <mxPoint x="1140" y="900" as="targetPoint" />
            <Array as="points">
              <mxPoint x="1113" y="830" />
            </Array>
            <mxPoint x="1270.0000000000002" y="830" as="sourcePoint" />
          </mxGeometry>
        </mxCell>
        <mxCell id="xPTonAvmkrIlANT3uvYg-33" style="edgeStyle=orthogonalEdgeStyle;rounded=0;orthogonalLoop=1;jettySize=auto;html=1;exitX=0.5;exitY=1;exitDx=0;exitDy=0;entryX=0.5;entryY=0;entryDx=0;entryDy=0;labelBackgroundColor=none;fontColor=default;" parent="1" target="xPTonAvmkrIlANT3uvYg-30" edge="1">
          <mxGeometry relative="1" as="geometry">
            <mxPoint x="1325.0000000000002" y="860" as="sourcePoint" />
          </mxGeometry>
        </mxCell>
        <mxCell id="xPTonAvmkrIlANT3uvYg-6" style="edgeStyle=orthogonalEdgeStyle;rounded=0;orthogonalLoop=1;jettySize=auto;html=1;exitX=0.5;exitY=1;exitDx=0;exitDy=0;labelBackgroundColor=none;fontColor=default;strokeWidth=2;" parent="1" source="DzrJmRy5Vq4GtP9a1xdO-46" target="DzrJmRy5Vq4GtP9a1xdO-57" edge="1">
          <mxGeometry relative="1" as="geometry" />
        </mxCell>
        <mxCell id="xPTonAvmkrIlANT3uvYg-28" style="edgeStyle=orthogonalEdgeStyle;rounded=1;orthogonalLoop=1;jettySize=auto;html=1;exitX=0;exitY=0.5;exitDx=0;exitDy=0;entryX=0;entryY=0.5;entryDx=0;entryDy=0;curved=0;labelBackgroundColor=none;fontColor=default;strokeWidth=2;" parent="1" source="DzrJmRy5Vq4GtP9a1xdO-46" target="DzrJmRy5Vq4GtP9a1xdO-64" edge="1">
          <mxGeometry relative="1" as="geometry">
            <Array as="points">
              <mxPoint x="1000" y="920" />
              <mxPoint x="1000" y="1199" />
            </Array>
          </mxGeometry>
        </mxCell>
        <mxCell id="DzrJmRy5Vq4GtP9a1xdO-46" value="&lt;font style=&quot;font-size: 17px;&quot;&gt;Acknowledgement&lt;/font&gt;" style="ellipse;whiteSpace=wrap;html=1;strokeWidth=2;labelBackgroundColor=none;" parent="1" vertex="1">
          <mxGeometry x="1030" y="895" width="166.25" height="60" as="geometry" />
        </mxCell>
        <mxCell id="y22iHl7WnLabTxwsfmwX-5" style="edgeStyle=orthogonalEdgeStyle;rounded=0;orthogonalLoop=1;jettySize=auto;html=1;exitX=0.5;exitY=1;exitDx=0;exitDy=0;labelBackgroundColor=none;fontColor=default;strokeWidth=2;" parent="1" target="DzrJmRy5Vq4GtP9a1xdO-63" edge="1">
          <mxGeometry relative="1" as="geometry">
            <mxPoint x="1523.75" y="950" as="sourcePoint" />
          </mxGeometry>
        </mxCell>
        <mxCell id="xPTonAvmkrIlANT3uvYg-23" style="edgeStyle=orthogonalEdgeStyle;rounded=1;orthogonalLoop=1;jettySize=auto;html=1;exitX=1;exitY=0.5;exitDx=0;exitDy=0;entryX=0;entryY=0.75;entryDx=0;entryDy=0;curved=0;labelBackgroundColor=none;fontColor=default;strokeWidth=2;" parent="1" target="DzrJmRy5Vq4GtP9a1xdO-64" edge="1">
          <mxGeometry relative="1" as="geometry">
            <mxPoint x="1598.75" y="925" as="sourcePoint" />
            <Array as="points">
              <mxPoint x="1650" y="925" />
              <mxPoint x="1650" y="1270" />
              <mxPoint x="1000" y="1270" />
              <mxPoint x="1000" y="1215" />
              <mxPoint x="1041" y="1215" />
            </Array>
          </mxGeometry>
        </mxCell>
        <mxCell id="xPTonAvmkrIlANT3uvYg-29" style="edgeStyle=orthogonalEdgeStyle;rounded=1;orthogonalLoop=1;jettySize=auto;html=1;exitX=1;exitY=1;exitDx=0;exitDy=0;entryX=1;entryY=0.5;entryDx=0;entryDy=0;curved=0;labelBackgroundColor=none;fontColor=default;strokeWidth=2;" parent="1" target="DzrJmRy5Vq4GtP9a1xdO-66" edge="1">
          <mxGeometry relative="1" as="geometry">
            <mxPoint x="1576.783008588991" y="942.6776695296635" as="sourcePoint" />
            <Array as="points">
              <mxPoint x="1577" y="940" />
              <mxPoint x="1619" y="940" />
              <mxPoint x="1619" y="1199" />
            </Array>
          </mxGeometry>
        </mxCell>
        <mxCell id="xPTonAvmkrIlANT3uvYg-11" style="edgeStyle=orthogonalEdgeStyle;rounded=1;orthogonalLoop=1;jettySize=auto;html=1;exitX=0;exitY=0.5;exitDx=0;exitDy=0;entryX=1;entryY=0.5;entryDx=0;entryDy=0;curved=0;labelBackgroundColor=none;fontColor=default;strokeWidth=2;" parent="1" source="xPTonAvmkrIlANT3uvYg-30" target="DzrJmRy5Vq4GtP9a1xdO-64" edge="1">
          <mxGeometry relative="1" as="geometry">
            <mxPoint x="1265" y="925" as="sourcePoint" />
          </mxGeometry>
        </mxCell>
        <mxCell id="DzrJmRy5Vq4GtP9a1xdO-56" style="edgeStyle=orthogonalEdgeStyle;rounded=1;orthogonalLoop=1;jettySize=auto;html=1;exitX=1;exitY=0.5;exitDx=0;exitDy=0;entryX=0;entryY=0.5;entryDx=0;entryDy=0;curved=0;labelBackgroundColor=none;fontColor=default;strokeWidth=2;" parent="1" source="DzrJmRy5Vq4GtP9a1xdO-57" target="DzrJmRy5Vq4GtP9a1xdO-65" edge="1">
          <mxGeometry relative="1" as="geometry">
            <mxPoint x="1240" y="1200" as="targetPoint" />
            <Array as="points">
              <mxPoint x="1220" y="1045" />
              <mxPoint x="1220" y="1200" />
              <mxPoint x="1260" y="1200" />
            </Array>
          </mxGeometry>
        </mxCell>
        <mxCell id="xPTonAvmkrIlANT3uvYg-9" style="edgeStyle=orthogonalEdgeStyle;rounded=0;orthogonalLoop=1;jettySize=auto;html=1;exitX=0.5;exitY=1;exitDx=0;exitDy=0;labelBackgroundColor=none;fontColor=default;" parent="1" source="DzrJmRy5Vq4GtP9a1xdO-57" target="DzrJmRy5Vq4GtP9a1xdO-64" edge="1">
          <mxGeometry relative="1" as="geometry" />
        </mxCell>
        <mxCell id="DzrJmRy5Vq4GtP9a1xdO-57" value="&lt;font style=&quot;font-size: 17px;&quot;&gt;Register&amp;gt;=α1&lt;/font&gt;" style="rhombus;whiteSpace=wrap;html=1;strokeWidth=2;labelBackgroundColor=none;" parent="1" vertex="1">
          <mxGeometry x="1041.88" y="1000" width="142.5" height="90" as="geometry" />
        </mxCell>
        <mxCell id="DzrJmRy5Vq4GtP9a1xdO-58" style="edgeStyle=orthogonalEdgeStyle;rounded=0;orthogonalLoop=1;jettySize=auto;html=1;exitX=0.5;exitY=1;exitDx=0;exitDy=0;entryX=0.5;entryY=0;entryDx=0;entryDy=0;labelBackgroundColor=none;fontColor=default;" parent="1" source="DzrJmRy5Vq4GtP9a1xdO-60" target="DzrJmRy5Vq4GtP9a1xdO-65" edge="1">
          <mxGeometry relative="1" as="geometry">
            <mxPoint x="1320.3529411764707" y="1170" as="targetPoint" />
          </mxGeometry>
        </mxCell>
        <mxCell id="y22iHl7WnLabTxwsfmwX-7" style="edgeStyle=orthogonalEdgeStyle;rounded=1;orthogonalLoop=1;jettySize=auto;html=1;exitX=1;exitY=0.5;exitDx=0;exitDy=0;entryX=0;entryY=0.5;entryDx=0;entryDy=0;curved=0;labelBackgroundColor=none;fontColor=default;strokeWidth=2;" parent="1" source="DzrJmRy5Vq4GtP9a1xdO-60" target="DzrJmRy5Vq4GtP9a1xdO-66" edge="1">
          <mxGeometry relative="1" as="geometry">
            <mxPoint x="1410" y="1200" as="targetPoint" />
            <Array as="points">
              <mxPoint x="1440" y="1045" />
              <mxPoint x="1440" y="1200" />
              <mxPoint x="1464" y="1200" />
            </Array>
          </mxGeometry>
        </mxCell>
        <mxCell id="DzrJmRy5Vq4GtP9a1xdO-60" value="&lt;font style=&quot;font-size: 17px;&quot;&gt;Register&amp;gt;=α2&lt;/font&gt;" style="rhombus;whiteSpace=wrap;html=1;strokeWidth=2;labelBackgroundColor=none;" parent="1" vertex="1">
          <mxGeometry x="1255" y="1000" width="140" height="90" as="geometry" />
        </mxCell>
        <mxCell id="DzrJmRy5Vq4GtP9a1xdO-61" style="edgeStyle=orthogonalEdgeStyle;rounded=0;orthogonalLoop=1;jettySize=auto;html=1;exitX=0.5;exitY=1;exitDx=0;exitDy=0;entryX=0.5;entryY=0;entryDx=0;entryDy=0;labelBackgroundColor=none;fontColor=default;" parent="1" source="DzrJmRy5Vq4GtP9a1xdO-63" target="DzrJmRy5Vq4GtP9a1xdO-66" edge="1">
          <mxGeometry relative="1" as="geometry">
            <mxPoint x="1504.4705882352941" y="1170" as="targetPoint" />
          </mxGeometry>
        </mxCell>
        <mxCell id="xPTonAvmkrIlANT3uvYg-27" style="edgeStyle=orthogonalEdgeStyle;rounded=1;orthogonalLoop=1;jettySize=auto;html=1;exitX=0.5;exitY=1;exitDx=0;exitDy=0;entryX=1;entryY=0.5;entryDx=0;entryDy=0;curved=0;labelBackgroundColor=none;fontColor=default;strokeWidth=2;" parent="1" source="DzrJmRy5Vq4GtP9a1xdO-63" target="DzrJmRy5Vq4GtP9a1xdO-65" edge="1">
          <mxGeometry relative="1" as="geometry">
            <Array as="points">
              <mxPoint x="1524" y="1110" />
              <mxPoint x="1420" y="1110" />
              <mxPoint x="1420" y="1200" />
            </Array>
          </mxGeometry>
        </mxCell>
        <mxCell id="DzrJmRy5Vq4GtP9a1xdO-63" value="&lt;font style=&quot;font-size: 17px;&quot;&gt;Register&amp;gt;=β&lt;/font&gt;" style="rhombus;whiteSpace=wrap;html=1;strokeWidth=2;labelBackgroundColor=none;" parent="1" vertex="1">
          <mxGeometry x="1457.5" y="1000" width="132.5" height="90" as="geometry" />
        </mxCell>
        <mxCell id="DzrJmRy5Vq4GtP9a1xdO-64" value="&lt;font style=&quot;font-size: 17px;&quot;&gt;ARQ&lt;/font&gt;" style="rounded=1;whiteSpace=wrap;html=1;strokeWidth=2;labelBackgroundColor=none;" parent="1" vertex="1">
          <mxGeometry x="1052.5" y="1169" width="120" height="60" as="geometry" />
        </mxCell>
        <mxCell id="DzrJmRy5Vq4GtP9a1xdO-65" value="&lt;font style=&quot;font-size: 17px;&quot;&gt;HARQ 1&lt;/font&gt;" style="rounded=1;whiteSpace=wrap;html=1;strokeWidth=2;labelBackgroundColor=none;" parent="1" vertex="1">
          <mxGeometry x="1260" y="1169" width="130" height="60" as="geometry" />
        </mxCell>
        <mxCell id="DzrJmRy5Vq4GtP9a1xdO-66" value="&lt;font style=&quot;font-size: 17px;&quot;&gt;HARQ 2&lt;/font&gt;" style="rounded=1;whiteSpace=wrap;html=1;glass=0;strokeWidth=2;labelBackgroundColor=none;" parent="1" vertex="1">
          <mxGeometry x="1463.75" y="1169" width="120" height="60" as="geometry" />
        </mxCell>
        <mxCell id="DzrJmRy5Vq4GtP9a1xdO-70" value="&lt;font style=&quot;font-size: 16px;&quot;&gt;No&lt;/font&gt;" style="text;html=1;align=center;verticalAlign=middle;whiteSpace=wrap;rounded=0;labelBackgroundColor=none;" parent="1" vertex="1">
          <mxGeometry x="1517.5" y="1110" width="60" height="30" as="geometry" />
        </mxCell>
        <mxCell id="DzrJmRy5Vq4GtP9a1xdO-73" value="&lt;font style=&quot;font-size: 16px;&quot;&gt;ACK&lt;/font&gt;" style="text;html=1;align=center;verticalAlign=middle;whiteSpace=wrap;rounded=0;labelBackgroundColor=none;" parent="1" vertex="1">
          <mxGeometry x="1230" y="960" width="60" height="30" as="geometry" />
        </mxCell>
        <mxCell id="DzrJmRy5Vq4GtP9a1xdO-74" value="&lt;font style=&quot;font-size: 16px;&quot;&gt;ACK+&lt;/font&gt;" style="text;html=1;align=center;verticalAlign=middle;whiteSpace=wrap;rounded=0;labelBackgroundColor=none;" parent="1" vertex="1">
          <mxGeometry x="1150" y="960" width="60" height="30" as="geometry" />
        </mxCell>
        <mxCell id="DzrJmRy5Vq4GtP9a1xdO-76" value="&lt;font style=&quot;font-size: 17px;&quot;&gt;ACK,&amp;nbsp;&lt;/font&gt;&lt;span style=&quot;font-size: 17px;&quot;&gt;ACK+&lt;/span&gt;" style="text;html=1;align=center;verticalAlign=middle;whiteSpace=wrap;rounded=0;labelBackgroundColor=none;" parent="1" vertex="1">
          <mxGeometry x="880" y="960" width="120" height="30" as="geometry" />
        </mxCell>
        <mxCell id="DzrJmRy5Vq4GtP9a1xdO-78" style="edgeStyle=none;rounded=0;orthogonalLoop=1;jettySize=auto;html=1;exitX=0.75;exitY=1;exitDx=0;exitDy=0;labelBackgroundColor=none;fontColor=default;" parent="1" edge="1">
          <mxGeometry relative="1" as="geometry">
            <mxPoint x="1085" y="1190" as="sourcePoint" />
            <mxPoint x="1085" y="1190" as="targetPoint" />
          </mxGeometry>
        </mxCell>
        <mxCell id="DzrJmRy5Vq4GtP9a1xdO-79" value="&lt;span style=&quot;color: rgb(0, 0, 0); font-family: Helvetica; font-style: normal; font-variant-ligatures: normal; font-variant-caps: normal; font-weight: 400; letter-spacing: normal; orphans: 2; text-align: center; text-indent: 0px; text-transform: none; widows: 2; word-spacing: 0px; -webkit-text-stroke-width: 0px; background-color: rgb(251, 251, 251); text-decoration-thickness: initial; text-decoration-style: initial; text-decoration-color: initial; float: none; display: inline !important;&quot;&gt;&lt;font style=&quot;font-size: 17px;&quot;&gt;ACK+&lt;/font&gt;&lt;/span&gt;" style="text;whiteSpace=wrap;html=1;labelBackgroundColor=none;" parent="1" vertex="1">
          <mxGeometry x="1660" y="960" width="60" height="40" as="geometry" />
        </mxCell>
        <mxCell id="DzrJmRy5Vq4GtP9a1xdO-80" value="&lt;font style=&quot;font-size: 17px;&quot;&gt;NAK&lt;/font&gt;" style="text;html=1;align=center;verticalAlign=middle;whiteSpace=wrap;rounded=0;labelBackgroundColor=none;" parent="1" vertex="1">
          <mxGeometry x="1560" y="960" width="60" height="30" as="geometry" />
        </mxCell>
        <mxCell id="DzrJmRy5Vq4GtP9a1xdO-81" value="&lt;font style=&quot;font-size: 17px;&quot;&gt;ACK&lt;/font&gt;" style="text;html=1;align=center;verticalAlign=middle;whiteSpace=wrap;rounded=0;labelBackgroundColor=none;" parent="1" vertex="1">
          <mxGeometry x="1457.5" y="960" width="60" height="30" as="geometry" />
        </mxCell>
        <mxCell id="DzrJmRy5Vq4GtP9a1xdO-82" value="&lt;font style=&quot;font-size: 17px;&quot;&gt;NAK&lt;/font&gt;" style="text;html=1;align=center;verticalAlign=middle;whiteSpace=wrap;rounded=0;labelBackgroundColor=none;" parent="1" vertex="1">
          <mxGeometry x="1052.5" y="960" width="58.12" height="30" as="geometry" />
        </mxCell>
        <mxCell id="DzrJmRy5Vq4GtP9a1xdO-83" value="&lt;font style=&quot;font-size: 16px;&quot;&gt;Yes&lt;/font&gt;" style="text;html=1;align=center;verticalAlign=middle;whiteSpace=wrap;rounded=0;labelBackgroundColor=none;" parent="1" vertex="1">
          <mxGeometry x="1445" y="1080" width="60" height="30" as="geometry" />
        </mxCell>
        <mxCell id="y22iHl7WnLabTxwsfmwX-6" style="edgeStyle=orthogonalEdgeStyle;rounded=0;orthogonalLoop=1;jettySize=auto;html=1;exitX=0.5;exitY=1;exitDx=0;exitDy=0;labelBackgroundColor=none;fontColor=default;" parent="1" source="DzrJmRy5Vq4GtP9a1xdO-80" target="DzrJmRy5Vq4GtP9a1xdO-80" edge="1">
          <mxGeometry relative="1" as="geometry" />
        </mxCell>
        <mxCell id="xPTonAvmkrIlANT3uvYg-35" style="edgeStyle=orthogonalEdgeStyle;rounded=0;orthogonalLoop=1;jettySize=auto;html=1;exitX=0.5;exitY=1;exitDx=0;exitDy=0;entryX=0.5;entryY=0;entryDx=0;entryDy=0;labelBackgroundColor=none;fontColor=default;strokeWidth=2;" parent="1" source="xPTonAvmkrIlANT3uvYg-30" target="DzrJmRy5Vq4GtP9a1xdO-60" edge="1">
          <mxGeometry relative="1" as="geometry" />
        </mxCell>
        <mxCell id="xPTonAvmkrIlANT3uvYg-40" style="edgeStyle=orthogonalEdgeStyle;rounded=1;orthogonalLoop=1;jettySize=auto;html=1;exitX=0;exitY=1;exitDx=0;exitDy=0;entryX=0;entryY=0.25;entryDx=0;entryDy=0;curved=0;labelBackgroundColor=none;fontColor=default;strokeWidth=2;" parent="1" source="xPTonAvmkrIlANT3uvYg-30" target="DzrJmRy5Vq4GtP9a1xdO-65" edge="1">
          <mxGeometry relative="1" as="geometry">
            <Array as="points">
              <mxPoint x="1240" y="951" />
              <mxPoint x="1240" y="1184" />
            </Array>
          </mxGeometry>
        </mxCell>
        <mxCell id="xPTonAvmkrIlANT3uvYg-30" value="&lt;font style=&quot;font-size: 17px;&quot;&gt;Acknowledgement&lt;/font&gt;" style="ellipse;whiteSpace=wrap;html=1;strokeWidth=2;labelBackgroundColor=none;" parent="1" vertex="1">
          <mxGeometry x="1241.88" y="900" width="166.25" height="60" as="geometry" />
        </mxCell>
        <mxCell id="xPTonAvmkrIlANT3uvYg-31" value="&lt;font style=&quot;font-size: 17px;&quot;&gt;Acknowledgement&lt;/font&gt;" style="ellipse;whiteSpace=wrap;html=1;strokeWidth=2;labelBackgroundColor=none;" parent="1" vertex="1">
          <mxGeometry x="1445" y="895" width="166.25" height="60" as="geometry" />
        </mxCell>
        <mxCell id="xPTonAvmkrIlANT3uvYg-41" value="&lt;font style=&quot;font-size: 16px;&quot;&gt;Yes&lt;/font&gt;" style="text;html=1;align=center;verticalAlign=middle;whiteSpace=wrap;rounded=0;labelBackgroundColor=none;" parent="1" vertex="1">
          <mxGeometry x="1380" y="1010" width="60" height="30" as="geometry" />
        </mxCell>
        <mxCell id="xPTonAvmkrIlANT3uvYg-42" value="&lt;font style=&quot;font-size: 16px;&quot;&gt;No&lt;/font&gt;" style="text;html=1;align=center;verticalAlign=middle;whiteSpace=wrap;rounded=0;labelBackgroundColor=none;" parent="1" vertex="1">
          <mxGeometry x="1320" y="1110" width="60" height="30" as="geometry" />
        </mxCell>
        <mxCell id="xPTonAvmkrIlANT3uvYg-43" value="&lt;font style=&quot;font-size: 16px;&quot;&gt;Yes&lt;/font&gt;" style="text;html=1;align=center;verticalAlign=middle;whiteSpace=wrap;rounded=1;labelBackgroundColor=none;" parent="1" vertex="1">
          <mxGeometry x="1160" y="1010" width="60" height="30" as="geometry" />
        </mxCell>
        <mxCell id="xPTonAvmkrIlANT3uvYg-44" value="&lt;font style=&quot;font-size: 16px;&quot;&gt;No&lt;/font&gt;" style="text;html=1;align=center;verticalAlign=middle;whiteSpace=wrap;rounded=0;labelBackgroundColor=none;" parent="1" vertex="1">
          <mxGeometry x="1100" y="1110" width="60" height="30" as="geometry" />
        </mxCell>
        <mxCell id="xPTonAvmkrIlANT3uvYg-48" value="&lt;font style=&quot;font-size: 17px;&quot;&gt;NAK&lt;/font&gt;" style="text;html=1;align=center;verticalAlign=middle;whiteSpace=wrap;rounded=0;labelBackgroundColor=none;" parent="1" vertex="1">
          <mxGeometry x="1330" y="960" width="60" height="30" as="geometry" />
        </mxCell>
        <mxCell id="xPTonAvmkrIlANT3uvYg-53" style="edgeStyle=orthogonalEdgeStyle;rounded=1;orthogonalLoop=1;jettySize=auto;html=1;exitX=1;exitY=0.5;exitDx=0;exitDy=0;curved=0;labelBackgroundColor=none;fontColor=default;strokeWidth=2;" parent="1" source="xPTonAvmkrIlANT3uvYg-51" target="xPTonAvmkrIlANT3uvYg-31" edge="1">
          <mxGeometry relative="1" as="geometry" />
        </mxCell>
        <mxCell id="xPTonAvmkrIlANT3uvYg-51" value="&lt;span style=&quot;font-size: 17px; text-wrap: wrap;&quot;&gt;&amp;nbsp;&lt;/span&gt;" style="verticalLabelPosition=bottom;verticalAlign=top;html=1;shape=hexagon;perimeter=hexagonPerimeter2;arcSize=6;size=0.27;strokeWidth=2;labelBackgroundColor=none;" parent="1" vertex="1">
          <mxGeometry x="1260" y="790" width="130" height="80" as="geometry" />
        </mxCell>
        <mxCell id="xPTonAvmkrIlANT3uvYg-52" value="&lt;span style=&quot;font-size: 17px;&quot;&gt;Transmission&amp;nbsp;&lt;/span&gt;" style="text;html=1;align=center;verticalAlign=middle;whiteSpace=wrap;rounded=0;labelBackgroundColor=none;" parent="1" vertex="1">
          <mxGeometry x="1295" y="815" width="60" height="30" as="geometry" />
        </mxCell>
      </root>
    </mxGraphModel>
  </diagram>
</mxfile>
